<svg width="20" height="20" viewBox="0 0 20 20" fill="none" xmlns="http://www.w3.org/2000/svg">
<g clip-path="url(#clip0_56203_60483)">
<path d="M13.75 10.0013C14.9 10.0013 15.825 9.06797 15.825 7.91797C15.825 6.76797 14.9 5.83464 13.75 5.83464C12.6 5.83464 11.6666 6.76797 11.6666 7.91797C11.6666 9.06797 12.6 10.0013 13.75 10.0013ZM7.49996 9.16797C8.88329 9.16797 9.99163 8.0513 9.99163 6.66797C9.99163 5.28464 8.88329 4.16797 7.49996 4.16797C6.11663 4.16797 4.99996 5.28464 4.99996 6.66797C4.99996 8.0513 6.11663 9.16797 7.49996 9.16797ZM13.75 11.668C12.225 11.668 9.16663 12.4346 9.16663 13.9596V15.0013C9.16663 15.4596 9.54163 15.8346 9.99996 15.8346H17.5C17.9583 15.8346 18.3333 15.4596 18.3333 15.0013V13.9596C18.3333 12.4346 15.275 11.668 13.75 11.668ZM7.49996 10.8346C5.55829 10.8346 1.66663 11.8096 1.66663 13.7513V15.0013C1.66663 15.4596 2.04163 15.8346 2.49996 15.8346H7.49996V13.9596C7.49996 13.2513 7.77496 12.0096 9.47496 11.068C8.74996 10.918 8.04996 10.8346 7.49996 10.8346Z" fill="#514F6D"/>
</g>
<defs>
<clipPath id="clip0_56203_60483">
<rect width="20" height="20" fill="white"/>
</clipPath>
</defs>
</svg>
