<svg width="18" height="18" viewBox="0 0 18 18" fill="none" xmlns="http://www.w3.org/2000/svg">
<path d="M10.6666 0.667969H2.33329C1.40829 0.667969 0.666626 1.41797 0.666626 2.33464V10.668H2.33329V2.33464H10.6666V0.667969ZM14 4.0013H5.66663C4.74163 4.0013 3.99996 4.7513 3.99996 5.66797V14.0013H5.66663V5.66797H14V4.0013ZM15.6666 7.33464H8.99996C8.07496 7.33464 7.33329 8.08464 7.33329 9.0013V15.668C7.33329 16.5846 8.07496 17.3346 8.99996 17.3346H15.6666C16.5833 17.3346 17.3333 16.5846 17.3333 15.668V9.0013C17.3333 8.08464 16.5833 7.33464 15.6666 7.33464Z" fill="#484649"/>
</svg>
