<svg width="18" height="18" viewBox="0 0 18 18" fill="none" xmlns="http://www.w3.org/2000/svg">
<path d="M15.1917 9.81797C15.225 9.5513 15.25 9.28464 15.25 9.0013C15.25 8.71797 15.225 8.4513 15.1917 8.18464L16.95 6.80964C17.1083 6.68464 17.15 6.45964 17.05 6.2763L15.3833 3.39297C15.2833 3.20964 15.0583 3.14297 14.875 3.20964L12.8 4.04297C12.3667 3.70964 11.9 3.43464 11.3917 3.2263L11.075 1.01797C11.05 0.817969 10.875 0.667969 10.6667 0.667969H7.33332C7.12499 0.667969 6.94999 0.817969 6.92499 1.01797L6.60832 3.2263C6.09999 3.43464 5.63332 3.71797 5.19999 4.04297L3.12499 3.20964C2.93332 3.13464 2.71666 3.20964 2.61666 3.39297L0.949988 6.2763C0.841655 6.45964 0.891655 6.68464 1.04999 6.80964L2.80832 8.18464C2.77499 8.4513 2.74999 8.7263 2.74999 9.0013C2.74999 9.2763 2.77499 9.5513 2.80832 9.81797L1.04999 11.193C0.891655 11.318 0.849988 11.543 0.949988 11.7263L2.61666 14.6096C2.71666 14.793 2.94165 14.8596 3.12499 14.793L5.19999 13.9596C5.63332 14.293 6.09999 14.568 6.60832 14.7763L6.92499 16.9846C6.94999 17.1846 7.12499 17.3346 7.33332 17.3346H10.6667C10.875 17.3346 11.05 17.1846 11.075 16.9846L11.3917 14.7763C11.9 14.568 12.3667 14.2846 12.8 13.9596L14.875 14.793C15.0667 14.868 15.2833 14.793 15.3833 14.6096L17.05 11.7263C17.15 11.543 17.1083 11.318 16.95 11.193L15.1917 9.81797ZM8.99999 11.918C7.39165 11.918 6.08332 10.6096 6.08332 9.0013C6.08332 7.39297 7.39165 6.08464 8.99999 6.08464C10.6083 6.08464 11.9167 7.39297 11.9167 9.0013C11.9167 10.6096 10.6083 11.918 8.99999 11.918Z" fill="#484649"/>
</svg>
