<svg width="20" height="20" viewBox="0 0 20 20" fill="none" xmlns="http://www.w3.org/2000/svg">
<path d="M17.9 11.418L11.25 7.5013V2.91797C11.25 2.2263 10.6916 1.66797 9.99996 1.66797C9.30829 1.66797 8.74996 2.2263 8.74996 2.91797V7.5013L2.09996 11.418C1.83329 11.568 1.66663 11.8596 1.66663 12.168C1.66663 12.7513 2.22496 13.168 2.78329 13.0096L8.74996 11.2596V15.8346L6.86663 16.9596C6.74163 17.0346 6.66663 17.1763 6.66663 17.318V17.7346V17.8013C6.66663 18.0763 6.92496 18.2763 7.18329 18.2096L9.61663 17.6013L9.99996 17.5013L10.3166 17.5763L10.6666 17.668L12.25 18.068L12.8083 18.2096C13.075 18.2763 13.325 18.0763 13.325 17.8013V17.493V17.318C13.325 17.168 13.25 17.0346 13.125 16.9596L11.25 15.8346V11.2513L17.2166 13.0013C17.775 13.168 18.3333 12.7513 18.3333 12.168C18.3333 11.8596 18.1666 11.568 17.9 11.418Z" fill="#484649"/>
</svg>
